<svg width="47" height="48" viewBox="0 0 47 48" fill="none" xmlns="http://www.w3.org/2000/svg">
<g clip-path="url(#clip0_1416_574)">
<path d="M13.6845 24.5824C13.6845 23.3167 12.8056 22.5614 11.2548 22.5614C10.6221 22.5614 10.1935 22.6224 9.96875 22.6836V26.7476C10.2345 26.8079 10.5611 26.8286 11.0091 26.8286C12.6637 26.8286 13.6845 25.9916 13.6845 24.5824Z" fill="#C4C4C4"/>
<path d="M23.2846 22.6022C22.5896 22.6022 22.1414 22.6634 21.875 22.7246V31.7289C22.1409 31.7911 22.5698 31.7911 22.9578 31.7911C25.7752 31.8108 27.613 30.2598 27.613 26.9722C27.6336 24.1125 25.9588 22.6022 23.2846 22.6022Z" fill="#C4C4C4"/>
<path d="M41.6768 17.3117H40.5482V11.8662C40.5482 11.8323 40.5428 11.7981 40.5383 11.7637C40.5365 11.5475 40.4677 11.3351 40.3197 11.1668L31.2579 0.81521C31.2551 0.812565 31.2525 0.811626 31.2506 0.808725C31.1966 0.748396 31.1336 0.698222 31.0671 0.654789C31.0474 0.641563 31.0275 0.63047 31.0068 0.619036C30.9491 0.587549 30.888 0.561438 30.825 0.54258C30.8079 0.537801 30.7926 0.530804 30.7755 0.526367C30.7071 0.510154 30.636 0.5 30.564 0.5H8.29336C7.27639 0.5 6.45022 1.32711 6.45022 2.34322V17.3113H5.3219C3.86711 17.3113 2.6875 18.4904 2.6875 19.9457V33.645C2.6875 35.0993 3.86711 36.2792 5.3219 36.2792H6.45031V45.6568C6.45031 46.6728 7.27648 47.5 8.29344 47.5H38.7052C39.7212 47.5 40.5483 46.6729 40.5483 45.6568V36.2792H41.6769C43.1312 36.2792 44.3111 35.0993 44.3111 33.645V19.9461C44.311 18.4909 43.1311 17.3117 41.6768 17.3117ZM8.29336 2.34356H29.6424V11.7737C29.6424 12.2828 30.0555 12.6952 30.564 12.6952H38.7051V17.3123H8.29336V2.34356ZM30.9194 26.869C30.9194 29.5037 29.9601 31.3203 28.6309 32.4439C27.1827 33.6485 24.977 34.22 22.2827 34.22C20.6699 34.22 19.5267 34.1178 18.7499 34.0161V20.4984C19.8932 20.3151 21.3847 20.2129 22.957 20.2129C25.5692 20.2129 27.2643 20.6829 28.5921 21.6828C30.0208 22.7447 30.9194 24.4392 30.9194 26.869ZM6.88541 34.0774V20.4984C7.84461 20.336 9.19291 20.2129 11.0918 20.2129C13.011 20.2129 14.3794 20.5805 15.2979 21.3161C16.1761 22.0099 16.7668 23.1536 16.7668 24.5013C16.7668 25.8494 16.3188 26.9927 15.5015 27.7681C14.4398 28.7689 12.8677 29.2184 11.0296 29.2184C10.6219 29.2184 10.2531 29.1977 9.96848 29.1567V34.0777H6.88541V34.0774ZM38.7052 45.1579H8.29336V36.2792H38.7051V45.1579H38.7052ZM41.3757 22.8674H36.0862V26.0119H41.0279V28.544H36.0862V34.0775H32.9637V20.3151H41.3757V22.8674Z" fill="#C4C4C4"/>
</g>
<defs>
<clipPath id="clip0_1416_574">
<rect width="47" height="47" fill="white" transform="translate(0 0.5)"/>
</clipPath>
</defs>
</svg>
