<svg width="43" height="44" viewBox="0 0 43 44" fill="none" xmlns="http://www.w3.org/2000/svg">
<path d="M39.2207 1.92773H3.86328C1.77938 1.92773 0 3.62313 0 5.70703V30.2305C0 32.3144 1.77938 34.0098 3.86328 34.0098H15.9816L15.0578 39.5527H13.4375C12.7418 39.5527 12.1777 40.1168 12.1777 40.8125C12.1777 41.5082 12.7418 42.0723 13.4375 42.0723H29.5625C30.2582 42.0723 30.8223 41.5082 30.8223 40.8125C30.8223 40.1168 30.2582 39.5527 29.5625 39.5527H27.9422L27.0184 34.0098H39.2207C41.3046 34.0098 43 32.3144 43 30.2305V5.70703C43 3.62313 41.3046 1.92773 39.2207 1.92773ZM25.3879 39.5527H17.6121L18.5359 34.0098H24.4641L25.3879 39.5527ZM40.4805 30.2305C40.4805 30.9251 39.9153 31.4902 39.2207 31.4902C38.3219 31.4902 4.91754 31.4902 3.86328 31.4902C3.16865 31.4902 2.51953 30.9251 2.51953 30.2305V5.70703C2.51953 5.0124 3.16865 4.44727 3.86328 4.44727H20.2402V5.875C20.2402 6.57073 20.8043 7.13477 21.5 7.13477C22.1957 7.13477 22.7598 6.57073 22.7598 5.875V4.44727H39.2207C39.9153 4.44727 40.4805 5.0124 40.4805 5.70703V30.2305Z" fill="#333333"/>
<path d="M15.3211 14.8623C17.1501 12.268 15.294 8.64648 12.0938 8.64648C8.89403 8.64648 7.03705 12.2676 8.8664 14.8623C6.83566 15.9979 5.45898 18.1688 5.45898 20.6562V26.7031C5.45898 27.3989 6.02302 27.9629 6.71875 27.9629H17.4688C18.1645 27.9629 18.7285 27.3989 18.7285 26.7031V20.6562C18.7285 18.1688 17.3518 15.9979 15.3211 14.8623ZM10.666 12.5938C10.666 11.8065 11.3065 11.166 12.0938 11.166C12.881 11.166 13.5215 11.8065 13.5215 12.5938C13.5215 13.381 12.881 14.0215 12.0938 14.0215C11.3065 14.0215 10.666 13.381 10.666 12.5938ZM16.209 25.4434H7.97852V20.6562C7.97852 18.3871 9.82458 16.541 12.0938 16.541C14.3629 16.541 16.209 18.3871 16.209 20.6562V25.4434Z" fill="#333333"/>
<path d="M26.2308 25.6558C25.5816 25.229 24.7511 25.4792 24.421 26.1101C23.9248 27.0391 24.7184 28.1367 25.7773 27.9385C26.8979 27.7037 27.1432 26.2583 26.2308 25.6558Z" fill="#333333"/>
<path d="M31.7048 25.729C30.7996 24.9914 29.449 25.7723 29.6707 26.9493C29.8801 27.9594 31.1002 28.2888 31.7972 27.5943C32.3232 27.0665 32.2793 26.1987 31.7048 25.729Z" fill="#333333"/>
<path d="M36.9813 25.6558C36.3315 25.2288 35.5011 25.48 35.1714 26.1102C34.673 27.0436 35.4732 28.136 36.5278 27.9386C37.6402 27.7055 37.9007 26.2778 36.9813 25.6558Z" fill="#333333"/>
<path d="M32.2746 14.3717C31.4715 14.0878 30.5865 13.7473 30.1114 13.3746C30.0802 13.3501 30.0219 13.2035 30.0628 12.9859C30.0825 12.8817 30.1726 12.5339 30.508 12.4329C31.3482 12.1799 31.7363 12.5035 31.8066 12.5721C32.2945 13.0672 33.0914 13.0737 33.5872 12.5861C34.0833 12.0982 34.09 11.3006 33.6021 10.8046C33.2587 10.4554 32.7587 10.1386 32.1381 9.96335V9.89355C32.1381 9.19783 31.574 8.63379 30.8783 8.63379C30.1826 8.63379 29.6185 9.19783 29.6185 9.89355V10.076C27.3486 10.9008 26.8263 14.0002 28.5565 15.3572C29.3163 15.9532 30.3888 16.3775 31.4348 16.7473C32.0591 16.9679 32.1227 17.4156 32.0661 17.7522C32.0031 18.1272 31.6801 18.7634 30.8697 18.7688C30.0301 18.7746 29.8312 18.7432 29.2171 18.3415C28.6348 17.9607 27.8541 18.1239 27.4732 18.7061C27.0924 19.2884 27.2556 20.0691 27.8378 20.45C28.5078 20.8882 29.0381 21.1054 29.6185 21.2073V21.328C29.6185 22.0238 30.1825 22.5878 30.8782 22.5878C31.574 22.5878 32.138 22.0238 32.138 21.328V21.0647C35.1904 19.9613 35.5949 15.5453 32.2746 14.3717Z" fill="#333333"/>
</svg>
