<svg width="43" height="44" viewBox="0 0 43 44" fill="none" xmlns="http://www.w3.org/2000/svg">
<path d="M39.5566 22.5722C41.4837 22.4015 43 20.7793 43 18.8086V7.05078C43 4.96688 41.3046 3.27148 39.2207 3.27148H26.707C24.6231 3.27148 22.9277 4.96688 22.9277 7.05078V12.0059H7.22266C5.13875 12.0059 3.44336 13.7013 3.44336 15.7852V30.9023C3.44336 31.3439 3.52021 31.7678 3.66004 32.1621H2.26758C1.01722 32.1621 0 33.1793 0 34.4297C0 37.9029 2.82565 40.7285 6.29883 40.7285H36.7012C40.1743 40.7285 43 37.9029 43 34.4297C43 33.1793 41.9828 32.1621 40.7324 32.1621H39.34C39.4798 31.7678 39.5566 31.3439 39.5566 30.9023V22.5722ZM25.4473 7.05078C25.4473 6.35615 26.0124 5.79102 26.707 5.79102H39.2207C39.9153 5.79102 40.4805 6.35615 40.4805 7.05078V18.8086C40.4805 19.5032 39.9153 20.0684 39.2207 20.0684H27.5469C27.3107 20.0684 27.0794 20.1347 26.8792 20.2598L24.3392 21.8474L25.3942 18.3307C25.4294 18.2133 25.4473 18.0914 25.4473 17.9688V7.05078ZM36.7012 38.209H6.29883C4.29958 38.209 2.65802 36.6485 2.52785 34.6816H40.4722C40.342 36.6485 38.7004 38.209 36.7012 38.209ZM12.0098 22.6719C12.0098 21.8846 12.6502 21.2441 13.4375 21.2441C14.2248 21.2441 14.8652 21.8846 14.8652 22.6719C14.8652 23.4591 14.2248 24.0996 13.4375 24.0996C12.6502 24.0996 12.0098 23.4591 12.0098 22.6719ZM11.3379 28.0469C11.3379 27.2863 12.319 26.6191 13.4375 26.6191C14.0373 26.6191 14.6152 26.8063 15.023 27.1325C15.2151 27.2861 15.5371 27.6091 15.5371 28.0469V32.1621H11.3379V28.0469ZM18.0566 32.1621V28.0469C18.0566 26.9576 17.5247 25.9072 16.597 25.1651C16.5762 25.1484 16.5544 25.1328 16.5332 25.1165C17.0657 24.4436 17.3848 23.5945 17.3848 22.6719C17.3848 20.4953 15.614 18.7246 13.4375 18.7246C11.261 18.7246 9.49023 20.4953 9.49023 22.6719C9.49023 23.5956 9.81005 24.4455 10.3435 25.1187C9.40759 25.8415 8.81836 26.8865 8.81836 28.0469V32.1621H7.22266C6.52802 32.1621 5.96289 31.597 5.96289 30.9023V15.7852C5.96289 15.0905 6.52802 14.5254 7.22266 14.5254H22.9277V17.7839L21.9259 21.1234C21.6216 22.1376 21.9689 23.208 22.8107 23.8503C23.2641 24.1964 23.7993 24.3712 24.3371 24.3712C24.7976 24.3712 25.2601 24.2429 25.6744 23.984L27.9082 22.5879H37.0371V30.9023C37.0371 31.597 36.472 32.1621 35.7773 32.1621H18.0566Z" fill="#333333"/>
<path d="M34.2656 14.6934H31.5781C30.8824 14.6934 30.3184 15.2574 30.3184 15.9531C30.3184 16.6489 30.8824 17.2129 31.5781 17.2129H34.2656C34.9614 17.2129 35.5254 16.6489 35.5254 15.9531C35.5254 15.2574 34.9614 14.6934 34.2656 14.6934Z" fill="#333333"/>
<path d="M29.5625 11.166H36.2812C36.977 11.166 37.541 10.602 37.541 9.90625C37.541 9.21052 36.977 8.64648 36.2812 8.64648H29.5625C28.8668 8.64648 28.3027 9.21052 28.3027 9.90625C28.3027 10.602 28.8668 11.166 29.5625 11.166Z" fill="#333333"/>
</svg>
