<svg width="43" height="44" viewBox="0 0 43 44" fill="none" xmlns="http://www.w3.org/2000/svg">
<g clip-path="url(#clip0_203:3955)">
<path d="M27.7813 28.3235H26.5587V26.7315C28.5228 25.359 29.9064 23.2111 30.2621 20.7353H31.6175C33.7097 20.7353 35.4116 19.0333 35.4116 16.9412V14.4116C35.4116 6.74073 29.1707 0.5 21.4999 0.5C13.8289 0.5 7.58812 6.74082 7.58812 14.4118V16.9412C7.58812 19.0333 9.29016 20.7353 11.3822 20.7353H12.7377C13.0934 23.211 14.477 25.3589 16.4411 26.7314V28.3235H15.2185C8.22165 28.3235 2.5293 34.0159 2.5293 41.0127V42.2353C2.5293 42.9338 3.09555 43.5 3.794 43.5H39.2058C39.9042 43.5 40.4705 42.9338 40.4705 42.2353V41.0127C40.4705 34.0159 34.7781 28.3235 27.7813 28.3235ZM31.6175 18.2059H30.3528V15.6765H31.6175C32.315 15.6765 32.8822 16.2438 32.8822 16.9412C32.8822 17.6385 32.315 18.2059 31.6175 18.2059ZM21.4999 3.02941C27.4172 3.02941 32.2936 7.56853 32.8321 13.3476C32.4505 13.2183 32.0423 13.1471 31.6175 13.1471H30.2621C29.6465 8.86257 25.9521 5.55882 21.4999 5.55882C17.0477 5.55882 13.3532 8.86257 12.7377 13.1471H11.3822C10.9575 13.1471 10.5493 13.2183 10.1677 13.3476C10.706 7.56853 15.5825 3.02941 21.4999 3.02941ZM10.1175 16.9412C10.1175 16.2438 10.6849 15.6765 11.3822 15.6765H12.6469V18.2059H11.3822C10.6849 18.2059 10.1175 17.6385 10.1175 16.9412ZM15.1764 19.4706V14.4118C15.1764 10.925 18.0131 8.08824 21.4999 8.08824C24.9867 8.08824 27.8234 10.925 27.8234 14.4118V18.2059H21.4999C20.8014 18.2059 20.2352 18.7721 20.2352 19.4706C20.2352 20.169 20.8014 20.7353 21.4999 20.7353H27.6961C27.1086 23.6182 24.5536 25.7941 21.4999 25.7941C18.0131 25.7941 15.1764 22.9574 15.1764 19.4706ZM21.4999 28.3235C22.3786 28.3235 23.2275 28.1942 24.0293 27.9547V29.5882C24.0293 30.983 22.8946 32.1176 21.4999 32.1176C20.1052 32.1176 18.9705 30.983 18.9705 29.5882V27.9547C19.7723 28.1942 20.6212 28.3235 21.4999 28.3235ZM32.8822 40.9706V37.1765C32.8822 36.478 32.316 35.9118 31.6175 35.9118C30.9191 35.9118 30.3528 36.478 30.3528 37.1765V40.9706H12.6469V37.1765C12.6469 36.478 12.0807 35.9118 11.3822 35.9118C10.6838 35.9118 10.1175 36.478 10.1175 37.1765V40.9706H5.05879C5.08156 35.3878 9.63037 30.8529 15.2185 30.8529H16.6011C17.0597 32.628 18.46 34.0285 20.2352 34.4869V37.1765C20.2352 37.8749 20.8014 38.4412 21.4999 38.4412C22.1983 38.4412 22.7646 37.8749 22.7646 37.1765V34.4869C24.5396 34.0284 25.9401 32.628 26.3987 30.8529H27.7813C33.3693 30.8529 37.9182 35.3878 37.941 40.9706H32.8822Z" fill="#333333"/>
</g>
<defs>
<clipPath id="clip0_203:3955">
<rect width="43" height="43" fill="white" transform="translate(0 0.5)"/>
</clipPath>
</defs>
</svg>
