<svg width="56" height="56" viewBox="0 0 56 56" fill="none" xmlns="http://www.w3.org/2000/svg">
<g clip-path="url(#clip0_203:3890)">
<path d="M51.6797 36.5961H50.7563V22.1138C50.7563 21.2078 50.0218 20.4732 49.1157 20.4732H38.5673V15.537H41.3207C42.0098 15.537 42.6255 15.1064 42.8618 14.4591C43.0981 13.8118 42.9049 13.0858 42.3778 12.6417L27.8324 0.386161C27.2217 -0.128558 26.329 -0.128558 25.7182 0.386161L11.1729 12.6417C10.6459 13.0858 10.4525 13.8118 10.6889 14.4591C10.9251 15.1064 11.5408 15.537 12.23 15.537H14.9834V28.5346H4.32031C3.41425 28.5346 2.67969 29.2691 2.67969 30.1752V38.2366C2.67969 39.1426 3.41425 39.8772 4.32031 39.8772H5.24366V44.6574H4.32031C3.41425 44.6574 2.67969 45.392 2.67969 46.2981V54.3594C2.67969 55.2655 3.41425 56.0001 4.32031 56.0001H26.7075H26.7285H49.1157C50.0218 56.0001 50.7563 55.2655 50.7563 54.3594V47.9387H51.6797C52.5858 47.9387 53.3203 47.2041 53.3203 46.2981V38.2366C53.3203 37.3305 52.5858 36.5961 51.6797 36.5961ZM30.9332 39.8773H50.0391V44.6576H30.9332V39.8773ZM28.3691 36.5961V31.8159H47.4751V36.5961H28.3691ZM47.4751 28.5346H28.3481V23.7543H47.4751V28.5346ZM16.72 12.2585L26.7753 3.78608L36.8306 12.2585C35.9693 12.3083 35.286 13.0225 35.286 13.8964V20.4732H26.7075C25.8015 20.4732 25.0669 21.2078 25.0669 22.1138V28.5347H18.2648V13.8964C18.2646 13.0226 17.5814 12.3083 16.72 12.2585ZM5.96094 31.8158H25.0669V36.596H5.96094V31.8158ZM8.52502 39.8773H27.631V44.6576H8.52502V39.8773ZM5.96094 47.9387H25.0669V52.7188H5.96094V47.9387ZM47.4751 52.7188H28.3691V47.9387H47.4751V52.7188Z" fill="#333333"/>
</g>
<defs>
<clipPath id="clip0_203:3890">
<rect width="56" height="56" fill="white"/>
</clipPath>
</defs>
</svg>
