<svg width="56" height="56" viewBox="0 0 56 56" fill="none" xmlns="http://www.w3.org/2000/svg">
<path d="M54.25 20.9991C55.216 20.9991 56 20.2151 56 19.2491V15.7491C56 15.1016 55.643 14.5101 55.0725 14.2056L28.8225 0.205604C28.308 -0.0673955 27.692 -0.0673955 27.174 0.205604L0.924 14.2056C0.357 14.5101 0 15.1016 0 15.7491V19.2491C0 20.2151 0.784 20.9991 1.75 20.9991H3.5V45.4991C1.5715 45.4991 0 47.0671 0 48.9991V54.2491C0 55.2151 0.784 55.9991 1.75 55.9991H54.25C55.216 55.9991 56 55.2151 56 54.2491V48.9991C56 47.0671 54.4285 45.4991 52.5 45.4991V20.9991H54.25ZM52.5 52.4991H3.5V48.9991H52.5V52.4991ZM7 45.4991V20.9991H10.5V45.4991H7ZM14 45.4991V20.9991H28H42V45.4991H28H14ZM45.5 45.4991V20.9991H49V45.4991H45.5ZM3.5 17.4991V16.7991L28 3.7336L52.5 16.7991V17.4991H3.5Z" fill="#333333"/>
<path d="M28 31.4992C27.034 31.4992 26.25 30.7117 26.25 29.7492C26.25 28.7867 27.034 27.9992 28 27.9992H31.5C32.466 27.9992 33.25 27.2152 33.25 26.2492C33.25 25.2832 32.466 24.4992 31.5 24.4992H29.75V22.7492C29.75 21.7832 28.966 20.9992 28 20.9992C27.034 20.9992 26.25 21.7832 26.25 22.7492V24.8212C24.2165 25.5457 22.75 27.4707 22.75 29.7492C22.75 32.6437 25.1055 34.9992 28 34.9992C28.966 34.9992 29.75 35.7867 29.75 36.7492C29.75 37.7117 28.966 38.4992 28 38.4992H24.5C23.534 38.4992 22.75 39.2832 22.75 40.2492C22.75 41.2152 23.534 41.9992 24.5 41.9992H26.25V43.7492C26.25 44.7152 27.034 45.4992 28 45.4992C28.966 45.4992 29.75 44.7152 29.75 43.7492V41.6772C31.7835 40.9527 33.25 39.0277 33.25 36.7492C33.25 33.8547 30.8945 31.4992 28 31.4992Z" fill="#333333"/>
</svg>
