<svg width="56" height="56" viewBox="0 0 56 56" fill="none" xmlns="http://www.w3.org/2000/svg">
<path d="M52.5 13.9989H48.5135L45.4125 4.69589C45.115 3.81039 44.177 3.31689 43.2705 3.56539L6.7515 13.9989H3.5C1.568 13.9989 0 15.5704 0 17.4989V48.9989C0 50.9274 1.568 52.4989 3.5 52.4989H52.5C54.432 52.4989 56 50.9274 56 48.9989V17.4989C56 15.5704 54.432 13.9989 52.5 13.9989ZM42.6195 7.39089L44.821 13.9989H19.4985L42.6195 7.39089ZM3.5 17.4989H52.5V24.4989H3.5V17.4989ZM52.5 50.7489V48.9989H3.5V27.9989H52.5V48.9989H52.5035L52.5 50.7489Z" fill="#333333"/>
<path d="M47.25 34.9988H8.75C7.784 34.9988 7 35.7828 7 36.7488V43.7488C7 44.7148 7.784 45.4988 8.75 45.4988H47.25C48.216 45.4988 49 44.7148 49 43.7488V36.7488C49 35.7828 48.216 34.9988 47.25 34.9988ZM45.5 41.9988H10.5V38.4988H45.5V41.9988Z" fill="#333333"/>
</svg>
