<svg width="16" height="18" viewBox="0 0 16 18" fill="none" xmlns="http://www.w3.org/2000/svg">
<path d="M13.8333 17.3334H2.16667C1.24619 17.3334 0.5 16.5872 0.5 15.6667V4.00008C0.5 3.07961 1.24619 2.33341 2.16667 2.33341H3.83333V0.666748H5.5V2.33341H10.5V0.666748H12.1667V2.33341H13.8333C14.7538 2.33341 15.5 3.07961 15.5 4.00008V15.6667C15.5 16.5872 14.7538 17.3334 13.8333 17.3334ZM2.16667 7.33342V15.6667H13.8333V7.33342H2.16667ZM2.16667 4.00008V5.66675H13.8333V4.00008H2.16667ZM12.1667 14.0001H10.5V12.3334H12.1667V14.0001ZM8.83333 14.0001H7.16667V12.3334H8.83333V14.0001ZM5.5 14.0001H3.83333V12.3334H5.5V14.0001ZM12.1667 10.6667H10.5V9.00008H12.1667V10.6667ZM8.83333 10.6667H7.16667V9.00008H8.83333V10.6667ZM5.5 10.6667H3.83333V9.00008H5.5V10.6667Z" fill="#C4C4C4"/>
</svg>
