<svg width="52" height="52" viewBox="0 0 52 52" fill="none" xmlns="http://www.w3.org/2000/svg">
<path fill-rule="evenodd" clip-rule="evenodd" d="M34.0319 42.6985C34.4381 42.2922 34.6663 41.7412 34.6663 41.1667C34.6663 40.5922 34.4381 40.0412 34.0319 39.6348L20.3971 26L34.0319 12.3652C34.2388 12.1653 34.4039 11.9262 34.5175 11.6619C34.631 11.3976 34.6908 11.1132 34.6933 10.8256C34.6958 10.5379 34.641 10.2526 34.532 9.98629C34.4231 9.72001 34.2622 9.4781 34.0588 9.27466C33.8553 9.07123 33.6134 8.91034 33.3471 8.8014C33.0809 8.69246 32.7956 8.63764 32.5079 8.64014C32.2202 8.64264 31.9359 8.70241 31.6715 8.81597C31.4072 8.92952 31.1681 9.09458 30.9682 9.30152L15.8016 24.4682C15.3954 24.8745 15.1672 25.4255 15.1672 26C15.1672 26.5745 15.3954 27.1255 15.8016 27.5318L30.9682 42.6985C31.3745 43.1047 31.9255 43.3329 32.5001 43.3329C33.0746 43.3329 33.6256 43.1047 34.0319 42.6985Z" fill="#C4C4C4" fill-opacity="0.8"/>
</svg>
