<svg width="52" height="52" viewBox="0 0 52 52" fill="none" xmlns="http://www.w3.org/2000/svg">
<path fill-rule="evenodd" clip-rule="evenodd" d="M17.9681 42.6985C17.5619 42.2922 17.3337 41.7412 17.3337 41.1667C17.3337 40.5922 17.5619 40.0412 17.9681 39.6348L31.6029 26L17.9681 12.3652C17.7612 12.1653 17.5961 11.9262 17.4825 11.6619C17.369 11.3976 17.3092 11.1132 17.3067 10.8256C17.3042 10.5379 17.359 10.2526 17.468 9.98629C17.5769 9.72001 17.7378 9.4781 17.9412 9.27466C18.1447 9.07123 18.3866 8.91034 18.6529 8.8014C18.9191 8.69246 19.2044 8.63764 19.4921 8.64014C19.7798 8.64264 20.0641 8.70241 20.3285 8.81597C20.5928 8.92952 20.8319 9.09458 21.0318 9.30152L36.1984 24.4682C36.6046 24.8745 36.8328 25.4255 36.8328 26C36.8328 26.5745 36.6046 27.1255 36.1984 27.5318L21.0318 42.6985C20.6255 43.1047 20.0745 43.3329 19.4999 43.3329C18.9254 43.3329 18.3744 43.1047 17.9681 42.6985V42.6985Z" fill="#C4C4C4" fill-opacity="0.8"/>
</svg>
