<svg width="56" height="56" viewBox="0 0 56 56" fill="none" xmlns="http://www.w3.org/2000/svg">
<path d="M7.21875 34.4531C7.21875 35.3592 7.95331 36.0938 8.85938 36.0938H35.1094C36.0154 36.0938 36.75 35.3592 36.75 34.4531C36.75 33.5471 36.0154 32.8125 35.1094 32.8125H8.85938C7.95331 32.8125 7.21875 33.5471 7.21875 34.4531Z" fill="#333333"/>
<path d="M35.1094 39.375H8.85938C7.95331 39.375 7.21875 40.1096 7.21875 41.0156C7.21875 41.9217 7.95331 42.6562 8.85938 42.6562H35.1094C36.0154 42.6562 36.75 41.9217 36.75 41.0156C36.75 40.1096 36.0154 39.375 35.1094 39.375Z" fill="#333333"/>
<path d="M21.9844 45.9375H8.85938C7.95331 45.9375 7.21875 46.6721 7.21875 47.5781C7.21875 48.4842 7.95331 49.2188 8.85938 49.2188H21.9844C22.8904 49.2188 23.625 48.4842 23.625 47.5781C23.625 46.6721 22.8904 45.9375 21.9844 45.9375Z" fill="#333333"/>
<path d="M8.85938 29.5312H24.1719C25.0779 29.5312 25.8125 28.7967 25.8125 27.8906V25.7031C25.8125 22.2938 23.9666 19.309 21.2228 17.6909C22.3699 16.5086 23.0781 14.8984 23.0781 13.125C23.0781 9.50644 20.1342 6.5625 16.5156 6.5625C12.8971 6.5625 9.95312 9.50644 9.95312 13.125C9.95312 14.8984 10.6613 16.5086 11.8085 17.6909C9.06467 19.309 7.21875 22.2938 7.21875 25.7031V27.8906C7.21875 28.7967 7.95331 29.5312 8.85938 29.5312ZM16.5156 9.84375C18.3249 9.84375 19.7969 11.3157 19.7969 13.125C19.7969 14.9343 18.3249 16.4062 16.5156 16.4062C14.7063 16.4062 13.2344 14.9343 13.2344 13.125C13.2344 11.3157 14.7063 9.84375 16.5156 9.84375ZM10.5 25.7031C10.5 22.3861 13.1986 19.6875 16.5156 19.6875C19.8326 19.6875 22.5312 22.3861 22.5312 25.7031V26.25H10.5V25.7031Z" fill="#333333"/>
<path d="M43.3125 4.47377V1.64062C43.3125 0.734562 42.5779 0 41.6719 0H2.29688C1.39081 0 0.65625 0.734562 0.65625 1.64062V54.3594C0.65625 55.2654 1.39081 56 2.29688 56H41.6719C42.5779 56 43.3125 55.2654 43.3125 54.3594V31.62C50.0804 30.8069 55.3438 25.0304 55.3438 18.0469C55.3438 11.0634 50.0804 5.28686 43.3125 4.47377ZM40.0312 52.7188H3.9375V3.28125H40.0312V4.47377C33.2633 5.28686 28 11.0634 28 18.0469C28 25.0304 33.2633 30.8069 40.0312 31.62V52.7188ZM41.6719 28.4375C35.9425 28.4375 31.2812 23.7763 31.2812 18.0469C31.2812 12.3175 35.9425 7.65625 41.6719 7.65625C47.4013 7.65625 52.0625 12.3175 52.0625 18.0469C52.0625 23.7763 47.4013 28.4375 41.6719 28.4375Z" fill="#333333"/>
<path d="M41.6718 16.4062C41.0687 16.4062 40.578 15.9156 40.578 15.3125C40.578 14.7094 41.0687 14.2188 41.6718 14.2188C42.1898 14.2188 42.6404 14.586 42.7432 15.0921C42.9236 15.9801 43.7899 16.5534 44.6776 16.3734C45.5655 16.1931 46.1392 15.327 45.9589 14.439C45.6613 12.9738 44.6382 11.799 43.3125 11.2592V10.9375C43.3125 10.0314 42.5779 9.29688 41.6719 9.29688C40.7658 9.29688 40.0312 10.0314 40.0312 10.9375V11.2579C38.4297 11.9083 37.2969 13.4801 37.2969 15.3125C37.2969 17.7249 39.2595 19.6875 41.6719 19.6875C42.275 19.6875 42.7656 20.1782 42.7656 20.7812C42.7656 21.3843 42.275 21.875 41.6719 21.875C41.1539 21.875 40.7032 21.5077 40.6004 21.0016C40.4202 20.1136 39.5542 19.5403 38.666 19.7204C37.7781 19.9007 37.2045 20.7667 37.3847 21.6547C37.6823 23.1199 38.7054 24.2947 40.0311 24.8346V25.1562C40.0311 26.0623 40.7657 26.7969 41.6718 26.7969C42.5778 26.7969 43.3124 26.0623 43.3124 25.1562V24.8359C44.914 24.1854 46.0468 22.6136 46.0468 20.7812C46.0468 18.3689 44.0841 16.4062 41.6718 16.4062Z" fill="#333333"/>
</svg>
