<svg width="56" height="56" viewBox="0 0 56 56" fill="none" xmlns="http://www.w3.org/2000/svg">
<path d="M46.1118 41.8356V0.000488281H0V48.5074L0.0074375 48.5854C0.025375 48.773 0.211312 50.4683 1.20148 52.2063C2.1875 53.9369 4.13777 55.9998 7.82983 55.9998H48.4431C52.6099 55.9998 56 52.6098 56 48.4429V41.8358H46.1118V41.8356ZM12.3592 48.5353C12.3363 48.6911 12.2617 49.1198 12.0775 49.645C12.0532 49.7143 12.0276 49.7847 11.9994 49.8569C11.994 49.8708 11.988 49.8849 11.9825 49.8989C11.897 50.1127 11.794 50.3367 11.6691 50.5613C11.6343 50.6238 11.598 50.6865 11.5598 50.7488C10.7484 52.0743 9.52831 52.7185 7.82983 52.7185C6.13856 52.7185 4.91794 52.0453 4.09817 50.6607C3.49759 49.6465 3.31723 48.5827 3.28103 48.3293V3.28163H42.8305V41.8357H12.3592V48.5353ZM52.7188 48.4427C52.7188 50.8004 50.8006 52.7184 48.4431 52.7184H14.1949C14.2019 52.7078 14.2083 52.6974 14.2153 52.6868C14.2423 52.6457 14.2684 52.6048 14.2942 52.564C14.3064 52.5449 14.3187 52.5258 14.3305 52.5067C14.3674 52.4473 14.4034 52.3882 14.4378 52.3294C15.4327 50.6352 15.6155 48.9782 15.633 48.7949L15.6404 48.7168V45.1166H52.7188V48.4427Z" fill="#333333"/>
<path d="M37.9606 12.3743H18.6113V15.6555H37.9606V12.3743Z" fill="#333333"/>
<path d="M37.9606 21.6089H18.6113V24.8901H37.9606V21.6089Z" fill="#333333"/>
<path d="M37.9606 30.8433H18.6113V34.1245H37.9606V30.8433Z" fill="#333333"/>
<path d="M14.1389 9.8916L10.9503 12.6098L9.7526 11.1803L7.2373 13.2875L10.5604 17.2536L16.2675 12.3886L14.1389 9.8916Z" fill="#333333"/>
<path d="M14.1389 20.1057L10.9503 22.8239L9.7526 21.3943L7.2373 23.5016L10.5604 27.4677L16.2675 22.6027L14.1389 20.1057Z" fill="#333333"/>
<path d="M14.1389 30.3188L10.9503 33.0369L9.7526 31.6075L7.2373 33.7147L10.5604 37.6809L16.2675 32.8158L14.1389 30.3188Z" fill="#333333"/>
</svg>
