<svg width="56" height="56" viewBox="0 0 56 56" fill="none" xmlns="http://www.w3.org/2000/svg">
<path d="M9.84375 11.7031V23.1875H23.0417V11.7031H9.84375ZM19.7605 19.9062H13.125V14.9844H19.7605V19.9062Z" fill="#333333"/>
<path d="M46.1562 11.7031H41.1982V14.9844H46.1562V11.7031Z" fill="#333333"/>
<path d="M52.7188 26.3594V11.7031C52.7188 8.08456 49.7748 5.14062 46.1562 5.14062H9.84375C6.22519 5.14062 3.28125 8.08456 3.28125 11.7031V26.3594H0V50.8594H56V26.3594H52.7188ZM6.5625 11.7031C6.5625 9.89384 8.03447 8.42188 9.84375 8.42188H46.1562C47.9655 8.42188 49.4375 9.89384 49.4375 11.7031V26.3594H6.5625V11.7031ZM52.7188 47.5781H3.28125V36.2031H52.7188V47.5781ZM52.7188 32.9219H3.28125V29.6406H52.7188V32.9219Z" fill="#333333"/>
</svg>
