<svg width="30" height="30" viewBox="0 0 30 30" fill="none" xmlns="http://www.w3.org/2000/svg">
<path d="M25.8632 8.21689V28.0673C25.8632 29.1349 24.9973 29.9999 23.9306 29.9999H6.06785C5.00033 29.9999 4.13525 29.1349 4.13525 28.0673V1.9326C4.1352 0.865078 5.00027 0 6.06785 0H17.6463L25.8632 8.21689Z" fill="#518EF8"/>
<path d="M20.5552 15.0618H9.44434V16.2964H20.5552V15.0618Z" fill="white"/>
<path d="M20.5552 17.819H9.44434V19.0536H20.5552V17.819Z" fill="white"/>
<path d="M20.5552 20.5765H9.44434V21.8112H20.5552V20.5765Z" fill="white"/>
<path d="M17.346 23.3337H9.44434V24.5684H17.346V23.3337Z" fill="white"/>
<path d="M18.7676 8.03839L25.8634 10.9617V8.21692L21.8403 7.02905L18.7676 8.03839Z" fill="#3A5BBC"/>
<path d="M25.8634 8.21689H19.5791C18.5115 8.21689 17.6465 7.35182 17.6465 6.2843V0L25.8634 8.21689Z" fill="#ACD1FC"/>
</svg>
