<svg width="41" height="40" viewBox="0 0 41 40" fill="none" xmlns="http://www.w3.org/2000/svg">
<path d="M37.3952 0H3.37208C2.72866 0 2.20703 0.524687 2.20703 1.17188V34.1289C2.20703 34.7761 2.72866 35.3008 3.37208 35.3008H6.87888V38.8281C6.87888 39.4753 7.40051 40 8.04392 40H14.2955C14.9389 40 15.4605 39.4753 15.4605 38.8281V35.3008H25.3332V38.8281C25.3332 39.4753 25.8549 40 26.4983 40H32.7499C33.3933 40 33.9149 39.4753 33.9149 38.8281V35.3008H37.3954C38.0388 35.3008 38.5604 34.7761 38.5604 34.1289V1.17188C38.5603 0.524687 38.0387 0 37.3952 0ZM4.53713 10.0895H6.87888V14.034H4.53713V10.0895ZM4.53713 16.3777H6.87888V18.9231H4.53713V16.3777ZM4.53713 21.2669H6.87888V25.2113H4.53713V21.2669ZM13.1304 37.6562H9.20889V35.3008H13.1304V37.6562ZM31.5847 37.6562H27.6633V35.3008H31.5847V37.6562ZM36.2302 32.957H32.7497H26.4981H14.2954H8.04385H4.53705V27.555H6.8788V29.4297C6.8788 30.0769 7.40043 30.6016 8.04385 30.6016H32.7497C33.3931 30.6016 33.9148 30.0769 33.9148 29.4297V5.87109C33.9148 5.22391 33.3931 4.69922 32.7497 4.69922H8.04385C7.40043 4.69922 6.8788 5.22391 6.8788 5.87109V7.74578H4.53705V2.34375H36.2302V32.957ZM23.5678 15.6779H31.5847V21.5789H23.5678C24.132 20.7352 24.4617 19.7199 24.4617 18.6284C24.4617 17.5369 24.132 16.5216 23.5678 15.6779V15.6779ZM19.2067 13.3341C16.3091 13.3341 13.9517 15.7091 13.9517 18.6284C13.9517 21.5477 16.3091 23.9227 19.2067 23.9227H31.5847V28.2579H9.20889V7.04297H31.5847V13.3341H19.2067ZM22.1316 18.6284C22.1316 20.2553 20.8195 21.5789 19.2067 21.5789C17.594 21.5789 16.2818 20.2553 16.2818 18.6284C16.2818 17.0015 17.5939 15.6779 19.2067 15.6779C20.8195 15.6779 22.1316 17.0015 22.1316 18.6284Z" fill="#333333" fill-opacity="0.8"/>
<path d="M18.042 18.6284C18.0703 19.2633 18.5539 19.8003 19.207 19.8003C19.8164 19.8003 20.4003 19.2613 20.3721 18.6284C20.3438 17.9935 19.8602 17.4565 19.207 17.4565C18.5976 17.4565 18.0138 17.9956 18.042 18.6284Z" fill="#333333" fill-opacity="0.8"/>
</svg>
