<svg width="41" height="40" viewBox="0 0 41 40" fill="none" xmlns="http://www.w3.org/2000/svg">
<g clip-path="url(#clip0_203:485)">
<path d="M40.5 0H0.5V3.125H6.4375V40H34.5625V3.125H40.5V0ZM9.5625 3.125H12.6875V36.875H9.5625V3.125ZM31.4375 36.875H15.8125V3.125H31.4375V36.875Z" fill="#333333" fill-opacity="0.8"/>
<path d="M26.75 27.8125C27.6129 27.8125 28.3125 27.1129 28.3125 26.25C28.3125 25.3871 27.6129 24.6875 26.75 24.6875C25.8871 24.6875 25.1875 25.3871 25.1875 26.25C25.1875 27.1129 25.8871 27.8125 26.75 27.8125Z" fill="#333333" fill-opacity="0.8"/>
<path d="M26.75 34.0625C27.6129 34.0625 28.3125 33.3629 28.3125 32.5C28.3125 31.6371 27.6129 30.9375 26.75 30.9375C25.8871 30.9375 25.1875 31.6371 25.1875 32.5C25.1875 33.3629 25.8871 34.0625 26.75 34.0625Z" fill="#333333" fill-opacity="0.8"/>
<path d="M25.1875 5.9375H28.3125V12.1875H25.1875V5.9375Z" fill="#333333" fill-opacity="0.8"/>
</g>
<defs>
<clipPath id="clip0_203:485">
<rect width="40" height="40" fill="white" transform="translate(0.5)"/>
</clipPath>
</defs>
</svg>
