<svg width="40" height="40" viewBox="0 0 40 40" fill="none" xmlns="http://www.w3.org/2000/svg">
<g clip-path="url(#clip0_203:466)">
<path d="M37.8905 15.6677V2.11328H2.10945V15.6677H0V37.8866H40V15.6677H37.8905ZM35.5468 18.9613L30.9492 23.4257H27.0599C29.952 21.2673 31.8281 17.8193 31.8281 13.9413C31.8281 10.0633 29.952 6.61539 27.06 4.45703H35.5469V18.9613H35.5468ZM29.4843 13.9413C29.4843 19.1711 25.2296 23.4257 20 23.4257C14.7703 23.4257 10.5156 19.171 10.5156 13.9413C10.5156 8.71172 14.7703 4.45703 20 4.45703C25.2297 4.45703 29.4843 8.71172 29.4843 13.9413V13.9413ZM8.17187 13.9413C8.17187 17.8194 10.048 21.2673 12.9401 23.4257H9.05078L4.4532 18.9613V4.45703H12.9401C10.048 6.61539 8.17187 10.0634 8.17187 13.9413V13.9413ZM8.10008 25.7695H31.8999L37.6562 20.1798V35.5428H2.34375V20.1798L8.10008 25.7695Z" fill="#333333" fill-opacity="0.8"/>
<path d="M18.807 7.06104V8.79885C17.8139 9.2101 17.1048 10.0694 16.9052 11.1124C16.7177 12.0928 17.0326 13.0756 17.7477 13.7413C18.3873 14.3368 19.0455 14.5361 19.6823 14.7288C19.9311 14.8042 20.1884 14.882 20.4717 14.9895C20.9927 15.187 21.2256 15.5225 21.1455 15.9596C21.0644 16.4025 20.6647 16.8791 19.9788 16.8791C19.3079 16.8791 18.7144 16.4409 18.215 15.5765L16.1855 16.749C16.8625 17.9207 17.7692 18.7052 18.8069 19.0395V20.822H21.1506V19.0273C22.3211 18.6248 23.2213 17.6344 23.4508 16.3822C23.7391 14.8092 22.8959 13.4024 21.3027 12.7981C20.9443 12.6622 20.6345 12.5684 20.3613 12.4857C19.824 12.3231 19.5766 12.242 19.3446 12.026C19.1847 11.8771 19.1816 11.6865 19.2071 11.5529C19.2468 11.3456 19.4028 11.0796 19.7219 10.9554C20.4667 10.6651 21.3402 11.3669 21.5077 11.5104L23.0329 9.7308C22.7709 9.50635 22.2243 9.08861 21.506 8.81361C21.3876 8.76822 21.2691 8.72892 21.1506 8.69494V7.06104H18.807Z" fill="#333333" fill-opacity="0.8"/>
<path d="M5 30.4946H14.1666V32.8384H5V30.4946Z" fill="#333333" fill-opacity="0.8"/>
</g>
<defs>
<clipPath id="clip0_203:466">
<rect width="40" height="40" fill="white"/>
</clipPath>
</defs>
</svg>
