<svg width="41" height="40" viewBox="0 0 41 40" fill="none" xmlns="http://www.w3.org/2000/svg">
<g clip-path="url(#clip0_203:461)">
<path d="M38.9375 17.8125H36.8565L38.5224 16.1465C39.1325 15.5368 39.1325 14.5471 38.5224 13.9368L25.0434 0.457764C24.4331 -0.152588 23.4437 -0.152588 22.8336 0.457764L0.95742 22.3337C0.347679 22.9437 0.347374 23.9334 0.95742 24.5435L6.43746 30.0235V38.4375C6.43746 39.3005 7.13692 40 7.99996 40H38.9375C39.8002 40 40.5 39.3005 40.5 38.4375V19.375C40.5 18.512 39.8002 17.8125 38.9375 17.8125ZM37.375 23.75H9.56246V20.9375H37.375V23.75ZM32.4372 17.8125H18.2951L28.137 7.97058L35.2079 15.0418L32.4372 17.8125ZM23.9384 3.77228L25.9272 5.76111L13.8755 17.8125H9.89816L23.9384 3.77228ZM6.43746 21.2732V25.2509L6.26077 25.4272L4.27193 23.4387L6.43746 21.2732ZM9.56246 36.875V26.875H37.375V36.875H9.56246Z" fill="#333333" fill-opacity="0.8"/>
<path d="M34.9531 32.1875C34.9531 33.2663 34.0785 34.1406 33 34.1406C31.9212 34.1406 31.0469 33.2663 31.0469 32.1875C31.0469 31.1087 31.9212 30.2344 33 30.2344C34.0785 30.2344 34.9531 31.1087 34.9531 32.1875Z" fill="#333333" fill-opacity="0.8"/>
</g>
<defs>
<clipPath id="clip0_203:461">
<rect width="40" height="40" fill="white" transform="translate(0.5)"/>
</clipPath>
</defs>
</svg>
