<svg width="40" height="40" viewBox="0 0 40 40" fill="none" xmlns="http://www.w3.org/2000/svg">
<path d="M38.8281 7.03125H35.2344C34.8611 7.03125 34.5101 7.20906 34.2894 7.51016L32.0445 10.5713C31.7436 10.9817 31.174 11.0854 30.7478 10.8073C30.2861 10.5062 30.1699 9.87609 30.5043 9.42977C32.6438 6.48883 32.8906 6.4757 32.8906 5.85938C32.8906 5.21023 32.3605 4.6875 31.7188 4.6875H27.215C29.5812 3.16211 32.3375 2.34375 35.2202 2.34375H38.8281C39.4753 2.34375 40 1.81906 40 1.17188C40 0.524687 39.4753 0 38.8281 0H35.2201C30.8229 0 26.6112 1.68398 23.4352 4.6875H16.4844C15.8372 4.6875 15.3125 5.21219 15.3125 5.85938V14.1406H8.20312C7.55594 14.1406 7.03125 14.6653 7.03125 15.3125V28.3117C4.65672 28.4827 2.36836 29.3815 0.511953 30.8866C0.00921875 31.2941 -0.0678906 32.0321 0.339766 32.5349C0.747422 33.0378 1.48539 33.1147 1.98812 32.7071C3.64414 31.3645 5.73016 30.625 7.86203 30.625H10.4688C11.1149 30.625 11.6406 31.1507 11.6406 31.7969C11.6406 32.443 11.1149 32.9688 10.4688 32.9688H7.03125C6.38406 32.9688 5.85938 33.4934 5.85938 34.1406C5.85938 34.7878 6.38406 35.3125 7.03125 35.3125H18.4711C17.9875 36.6766 16.6841 37.6562 15.1562 37.6562H1.17188C0.524687 37.6562 0 38.1809 0 38.8281C0 39.4753 0.524687 40 1.17188 40H15.1562C17.9859 40 20.3533 37.9838 20.8977 35.3125H27.0312C27.6784 35.3125 28.2031 34.7878 28.2031 34.1406V21.0938H36.4062C37.0534 21.0938 37.5781 20.5691 37.5781 19.9219V9.375H38.8281C39.4753 9.375 40 8.85031 40 8.20312C40 7.55594 39.4753 7.03125 38.8281 7.03125V7.03125ZM28.0083 14.6661C27.7985 14.3496 27.4395 14.1406 27.0312 14.1406H24.4611C23.5573 12.6123 24.662 10.6641 26.4453 10.6641C28.5543 10.6641 29.5346 13.2598 28.0083 14.6661ZM17.6562 7.03125H29.3727C28.7537 7.88898 28.4929 8.11813 28.2466 8.68367C24.733 7.20109 20.9747 10.3976 21.9475 14.1406H17.6562V7.03125ZM16.4844 16.4844H18.8281V21.1719H16.4844V16.4844ZM25.8594 32.9688C21.6941 32.9688 18.1214 32.9688 13.7836 32.9688C14.5915 30.6902 12.8926 28.2812 10.4688 28.2812H9.375V16.4844H14.1406V22.3438C14.1406 22.9909 14.6653 23.5156 15.3125 23.5156H20C20.6472 23.5156 21.1719 22.9909 21.1719 22.3438V16.4844H25.8594V32.9688ZM28.2031 18.75V17.274C29.8245 16.6161 30.9555 15.087 31.081 13.3002C32.2099 13.3642 33.2751 12.8565 33.9345 11.9573L35.2344 10.1848V18.75H28.2031Z" fill="#333333" fill-opacity="0.8"/>
</svg>
