<svg width="40" height="40" viewBox="0 0 40 40" fill="none" xmlns="http://www.w3.org/2000/svg">
<g clip-path="url(#clip0_203:446)">
<path d="M39.934 36.6717L37.6483 28.6717C37.438 27.9359 36.7654 27.4284 36 27.4284H34.2857V15.9999H37.1428C37.8982 15.9999 38.5646 15.5053 38.7835 14.7824C39.0025 14.0594 38.7222 13.2782 38.0936 12.8593L20.9508 1.43075C20.3751 1.04685 19.6249 1.04685 19.0491 1.43075L1.90619 12.8593C1.27759 13.2783 0.99736 14.0594 1.21634 14.7824C1.43533 15.5053 2.10173 15.9999 2.8572 15.9999H5.71431V27.4284H4.00001C3.23462 27.4284 2.56197 27.9358 2.35165 28.6717L0.0659546 36.6717C-0.0817796 37.189 0.021736 37.7456 0.34572 38.175C0.669626 38.6044 1.17634 38.8569 1.71431 38.8569H38.2857C38.8236 38.8569 39.3304 38.6045 39.6543 38.175C39.9782 37.7455 40.0818 37.189 39.934 36.6717ZM20 4.91723L31.481 12.5713H8.51915L20 4.91723ZM30.8572 15.9999V27.4284H25.9048V15.9999H30.8572ZM22.4762 15.9999V27.4284H17.5238V15.9999H22.4762ZM14.0952 15.9999V27.4284H9.1429V15.9999H14.0952ZM3.98704 35.4284L5.29321 30.857H34.707L36.0132 35.4284H3.98704Z" fill="#333333" fill-opacity="0.8"/>
</g>
<defs>
<clipPath id="clip0_203:446">
<rect width="40" height="40" fill="white"/>
</clipPath>
</defs>
</svg>
