<svg width="40" height="40" viewBox="0 0 40 40" fill="none" xmlns="http://www.w3.org/2000/svg">
<path d="M5.85938 35.3125H34.1406C34.7878 35.3125 35.3125 34.7878 35.3125 34.1406V27.7344C35.3125 27.0872 34.7878 26.5625 34.1406 26.5625H5.85938C5.21219 26.5625 4.6875 27.0872 4.6875 27.7344V34.1406C4.6875 34.7878 5.21219 35.3125 5.85938 35.3125ZM7.03125 28.9062H32.9688V32.9688H7.03125V28.9062Z" fill="#333333" fill-opacity="0.8"/>
<path d="M39.9398 22.6763L36.8148 13.3013C36.6554 12.8228 36.2075 12.5 35.7031 12.5H29.3755C29.6291 11.632 29.7656 10.7145 29.7656 9.76562C29.7656 4.38086 25.3848 0 20 0C14.6152 0 10.2344 4.38086 10.2344 9.76562C10.2344 10.7145 10.3709 11.632 10.6245 12.5H4.29688C3.79242 12.5 3.34461 12.8228 3.18516 13.3013L0.0601562 22.6763C0.0203125 22.7958 0 22.9209 0 23.0469V38.8281C0 39.4753 0.524687 40 1.17188 40H38.8281C39.4753 40 40 39.4753 40 38.8281V23.0469C40 22.9209 39.9797 22.7958 39.9398 22.6763ZM20 2.34375C24.0924 2.34375 27.4219 5.6732 27.4219 9.76562C27.4219 13.858 24.0924 17.1875 20 17.1875C15.9076 17.1875 12.5781 13.858 12.5781 9.76562C12.5781 5.6732 15.9076 2.34375 20 2.34375ZM5.14148 14.8438H11.6615C12.2013 15.7269 12.8776 16.5178 13.6605 17.1875H9.84375C9.19656 17.1875 8.67188 17.7122 8.67188 18.3594C8.67188 19.0066 9.19656 19.5312 9.84375 19.5312H30.1562C30.8034 19.5312 31.3281 19.0066 31.3281 18.3594C31.3281 17.7122 30.8034 17.1875 30.1562 17.1875H26.3395C27.1223 16.5178 27.7987 15.7269 28.3385 14.8438H34.8585L37.2023 21.875H2.79773L5.14148 14.8438ZM37.6562 37.6562H2.34375V24.2188H37.6562V37.6562Z" fill="#333333" fill-opacity="0.8"/>
<path d="M17.2697 14.04C18.011 14.5249 18.5338 14.6953 19.1646 14.7498V15.2344C19.1646 15.6659 19.5143 16.0156 19.9458 16.0156C20.3772 16.0156 20.7271 15.6659 20.7271 15.2344V14.6748C22.0252 14.3455 22.8572 13.2367 23.041 12.1434C23.2774 10.7367 22.5136 9.46547 21.1403 8.98C21.0043 8.93195 20.8657 8.88195 20.7271 8.83055V6.30617C20.9657 6.39422 21.0899 6.51375 21.1077 6.53172C21.3919 6.85234 21.8818 6.8843 22.2054 6.60242C22.5307 6.31906 22.5648 5.82555 22.2813 5.50023C22.0217 5.20219 21.4856 4.82883 20.7271 4.69742V4.29688C20.7271 3.86547 20.3772 3.51562 19.9458 3.51562C19.5143 3.51562 19.1646 3.86547 19.1646 4.29688V4.78305C19.1163 4.79578 19.0678 4.80938 19.0188 4.82414C18.0928 5.10313 17.4013 5.89359 17.214 6.88719C17.0422 7.79898 17.3382 8.68125 17.9865 9.18969C18.2925 9.42977 18.6655 9.64977 19.1646 9.87852V13.1783C18.8115 13.1286 18.547 13.0085 18.125 12.7325C17.764 12.4963 17.2798 12.5975 17.0435 12.9585C16.8074 13.3196 16.9086 13.8038 17.2697 14.04V14.04ZM20.7271 10.4952C21.5726 10.8513 21.5515 11.5791 21.5003 11.8845C21.4291 12.3079 21.1666 12.753 20.7271 13.0047V10.4952ZM18.9509 7.96031C18.7661 7.81547 18.6871 7.50781 18.7495 7.17664C18.7947 6.93656 18.9261 6.65984 19.1646 6.47695V8.11078C19.0877 8.06148 19.016 8.01133 18.9509 7.96031V7.96031Z" fill="#333333" fill-opacity="0.8"/>
</svg>
