<svg width="41" height="40" viewBox="0 0 41 40" fill="none" xmlns="http://www.w3.org/2000/svg">
<g clip-path="url(#clip0_203:473)">
<path d="M16.7734 35.0276H18.0952C18.7424 35.0276 19.2671 34.5029 19.2671 33.8557C19.2671 33.2085 18.7424 32.6838 18.0952 32.6838H16.7734C16.1263 32.6838 15.6016 33.2085 15.6016 33.8557C15.6016 34.5029 16.1263 35.0276 16.7734 35.0276Z" fill="#333333" fill-opacity="0.8"/>
<path d="M14.8499 16.3525C14.0281 16.0622 13.1215 15.7134 12.6282 15.3266C12.5521 15.2669 12.4957 15.0737 12.541 14.8329C12.5635 14.7128 12.6682 14.3118 13.0644 14.1925C13.825 13.9639 14.3388 14.2615 14.5245 14.4003C15.0429 14.7876 15.7773 14.6814 16.1647 14.163C16.5521 13.6444 16.4459 12.9101 15.9274 12.5227C15.7375 12.3809 15.2864 12.0845 14.6418 11.9078V11.7205C14.6418 11.0733 14.1171 10.5486 13.47 10.5486C12.8228 10.5486 12.2981 11.0733 12.2981 11.7205V11.9792C11.2394 12.3351 10.4535 13.2529 10.2376 14.3992C10.0319 15.4913 10.3939 16.5535 11.1822 17.1714C11.9403 17.7655 13.0177 18.1912 14.0691 18.5626C14.7698 18.8101 14.8407 19.3148 14.777 19.6948C14.6873 20.2287 14.2375 20.8058 13.4621 20.8109C12.5972 20.8173 12.3719 20.7813 11.7292 20.3612C11.1875 20.007 10.4613 20.1591 10.1071 20.7009C9.753 21.2426 9.9051 21.9688 10.4468 22.323C11.1509 22.7833 11.6874 22.9966 12.2981 23.0898V23.2985C12.2981 23.9457 12.8228 24.4704 13.47 24.4704C14.1171 24.4704 14.6418 23.9457 14.6418 23.2985V22.964C16.011 22.5052 16.8862 21.2865 17.0883 20.083C17.3673 18.4231 16.4677 16.9241 14.8499 16.3525V16.3525Z" fill="#333333" fill-opacity="0.8"/>
<path d="M35.2467 21.238L33.7395 19.28C33.3447 18.7671 32.6088 18.6714 32.0961 19.0663C31.5832 19.461 31.4875 20.1968 31.8824 20.7096L31.9372 20.7809H29.3583V14.1396H31.9742C32.6213 14.1396 33.146 13.6149 33.146 12.9677C33.146 12.3205 32.6213 11.7959 31.9742 11.7959H29.3583V1.17188C29.3583 0.524687 28.8336 0 28.1864 0H6.68164C6.03445 0 5.50977 0.524687 5.50977 1.17188V38.8281C5.50977 39.4753 6.03445 40 6.68164 40H28.1864C28.8336 40 29.3583 39.4753 29.3583 38.8281V23.1246H31.937L31.8823 23.1957C31.4874 23.7085 31.5831 24.4444 32.0959 24.8391C32.3091 25.0032 32.5604 25.0825 32.81 25.0825C33.1612 25.0825 33.5086 24.9252 33.7394 24.6254L35.2466 22.6675C35.571 22.2463 35.571 21.6593 35.2467 21.238V21.238ZM20.9821 2.34375L20.2022 4.67914H14.6658L13.8859 2.34375H20.9821ZM27.0145 37.6562H7.85352V30.3398H27.0145V37.6562ZM27.0145 27.9961H7.85352V2.34375H11.4149L12.7102 6.22219C12.8698 6.70039 13.3175 7.02289 13.8217 7.02289H21.0464C21.5506 7.02289 21.9983 6.70039 22.158 6.22219L23.4531 2.34375H27.0145V11.7959H24.3345L24.3893 11.7246C24.7842 11.2118 24.6884 10.476 24.1756 10.0812C23.6627 9.68625 22.927 9.78195 22.5322 10.295L21.025 12.253C20.7006 12.6743 20.7006 13.2612 21.025 13.6826L22.5322 15.6405C22.763 15.9405 23.1103 16.0977 23.4616 16.0977C23.711 16.0977 23.9626 16.0183 24.1756 15.8544C24.6884 15.4596 24.7842 14.7238 24.3893 14.211L24.3345 14.1398H27.0145V20.781H24.2975C23.6503 20.781 23.1256 21.3057 23.1256 21.9529C23.1256 22.6001 23.6503 23.1248 24.2975 23.1248H27.0145V27.9961Z" fill="#333333" fill-opacity="0.8"/>
</g>
<defs>
<clipPath id="clip0_203:473">
<rect width="40" height="40" fill="white" transform="translate(0.5)"/>
</clipPath>
</defs>
</svg>
