<svg width="40" height="40" viewBox="0 0 40 40" fill="none" xmlns="http://www.w3.org/2000/svg">
<path d="M17.3682 15.5303C18.9112 13.8567 19.7613 11.6117 19.7613 9.20835C19.7613 4.63237 16.4928 0 10.2447 0C7.33698 0 4.88395 0.998728 3.15046 2.88815C1.61494 4.56201 0.769531 6.80647 0.769531 9.20835C0.769531 13.7848 4.02419 18.417 10.2447 18.417C13.1633 18.4171 15.6271 17.4191 17.3682 15.5303ZM10.2447 4.28158C13.6682 4.28158 15.2273 6.83716 15.2273 9.2116C15.2273 10.5032 14.7926 11.6989 14.0027 12.578C13.1215 13.5599 11.8409 14.0791 10.3002 14.0791C6.79021 14.0791 5.1912 11.5238 5.1912 9.1496C5.1912 6.72688 6.75404 4.28158 10.2447 4.28158Z" fill="#333333" fill-opacity="0.8"/>
<path d="M32.9686 3.55234C32.4024 3.56257 31.6293 3.91561 31.2506 4.33663L3.14299 35.5873C2.76438 36.0086 3.03259 36.5992 3.59882 36.5992H7.27762C7.84384 36.5992 8.61615 36.2539 8.99414 35.8322L36.9279 4.58787C37.3058 4.16585 37.2807 3.47924 36.3451 3.47949L32.9686 3.55234Z" fill="#333333" fill-opacity="0.8"/>
<path d="M29.8964 21.9333C27.0448 21.9333 24.6383 22.9136 22.9376 24.767C21.4314 26.4084 20.6016 28.6106 20.6016 30.9668C20.6016 35.4557 23.7943 40 29.8965 40C32.7603 40 35.1765 39.0208 36.8848 37.1681C38.3986 35.5262 39.2323 33.3239 39.2323 30.9668C39.2322 26.4779 36.0256 21.9333 29.8964 21.9333ZM29.9515 35.8547C26.5365 35.8547 24.9806 33.2902 24.9806 30.9087C24.9806 29.6117 25.4149 28.4115 26.2042 27.529C27.0841 26.5443 28.3607 26.0238 29.8965 26.0238C33.3117 26.0238 34.8669 28.5878 34.8669 30.9701C34.8669 32.2668 34.4324 33.4673 33.6438 34.3497C32.7637 35.3342 31.4869 35.8547 29.9515 35.8547Z" fill="#333333" fill-opacity="0.8"/>
</svg>
