<svg width="40" height="40" viewBox="0 0 40 40" fill="none" xmlns="http://www.w3.org/2000/svg">
<path d="M18.8281 0V7.199C17.3306 5.66368 15.2407 4.70868 12.9317 4.70868C8.38806 4.70868 4.69149 8.40517 4.69149 12.9489V13.3408H0V21.9711H5.16993C5.33478 22.4322 5.53923 22.8747 5.77985 23.2938C4.39837 23.8137 3.1543 24.6731 2.17375 25.8062C0.774455 27.4234 0.00382813 29.4931 0.00382813 31.6341V40H25.8597V31.6341C25.8597 29.4932 25.089 27.4234 23.6897 25.8062C22.7092 24.673 21.4651 23.8137 20.0836 23.2938C20.7758 22.0879 21.1719 20.6915 21.1719 19.2042V14.4898H23.5195V19.4732L30.5043 14.4898H39.9999V0H18.8281ZM2.34383 19.6272V15.6847H4.69149V19.2043C4.69149 19.3461 4.69509 19.4871 4.7022 19.6272H2.34383ZM12.9317 7.05259C15.3965 7.05259 17.5118 8.57345 18.3914 10.7255C17.2352 10.6997 16.1164 10.3585 15.1475 9.73283L14.3603 9.22471L13.6914 9.88064C12.5156 11.0335 10.9616 11.6685 9.31541 11.6685C8.60572 11.6685 7.91908 11.5528 7.26462 11.3249C7.97181 8.86127 10.2438 7.05259 12.9317 7.05259ZM7.03533 13.7046C7.7758 13.9076 8.5447 14.0124 9.31541 14.0124C11.2767 14.0124 13.143 13.357 14.6581 12.1506C15.8542 12.7555 17.1772 13.072 18.5325 13.072C18.6311 13.072 18.7296 13.0697 18.828 13.0664V14.49V19.2043C18.828 22.4556 16.1829 25.1007 12.9317 25.1007C10.6799 25.1007 8.7197 23.8314 7.72673 21.9711H12.9317V19.6273H7.0522C7.0422 19.4875 7.03533 19.3468 7.03533 19.2043V13.7046ZM21.9172 27.34C22.9481 28.5314 23.5158 30.0565 23.5158 31.6342V37.6562H2.34766V31.6342C2.34766 30.0564 2.9154 28.5313 3.94626 27.34C4.84157 26.3054 6.0329 25.5786 7.34572 25.2563C8.81525 26.6137 10.7781 27.4445 12.9317 27.4445C15.0853 27.4445 17.0482 26.6137 18.5178 25.2563C19.8306 25.5786 21.022 26.3053 21.9172 27.34ZM29.7539 12.146L25.8634 14.9217V12.146H21.1719V2.34383H37.6561V12.146H29.7539Z" fill="#333333" fill-opacity="0.8"/>
<path d="M25.8942 6.073H23.5488V8.41683H25.8942V6.073Z" fill="#333333" fill-opacity="0.8"/>
<path d="M30.5856 6.073H28.2402V8.41683H30.5856V6.073Z" fill="#333333" fill-opacity="0.8"/>
<path d="M35.279 6.073H32.9336V8.41683H35.279V6.073Z" fill="#333333" fill-opacity="0.8"/>
</svg>
