<svg width="32" height="32" viewBox="0 0 32 32" fill="none" xmlns="http://www.w3.org/2000/svg">
<path d="M0 16C0 7.16344 7.16344 0 16 0C24.8366 0 32 7.16344 32 16C32 24.8366 24.8366 32 16 32C7.16344 32 0 24.8366 0 16Z" fill="#ECECEC"/>
<path d="M14.4004 19.2V13.8666L18.6671 16.5334L14.4004 19.2Z" fill="#ECECEC"/>
<path d="M19.4891 8H11.8455C9.35781 8 7.33398 10.0238 7.33398 12.5115V20.1553C7.33398 22.6428 9.35781 24.6667 11.8455 24.6667H19.4893C21.9768 24.6667 24.0007 22.6428 24.0007 20.1553V12.5115C24.0007 10.0238 21.9768 8 19.4891 8V8ZM15.6673 20.8905C13.1544 20.8905 11.1102 18.8462 11.1102 16.3333C11.1102 13.8205 13.1544 11.7762 15.6673 11.7762C18.1802 11.7762 20.2245 13.8205 20.2245 16.3333C20.2245 18.8462 18.1802 20.8905 15.6673 20.8905ZM20.3335 12.8509C19.5909 12.8509 18.9869 12.2469 18.9869 11.5043C18.9869 10.7617 19.5909 10.1576 20.3335 10.1576C21.076 10.1576 21.6802 10.7617 21.6802 11.5043C21.6802 12.2469 21.076 12.8509 20.3335 12.8509Z" fill="#333333"/>
<path d="M15.6681 13.9524C14.3553 13.9524 13.2871 15.0205 13.2871 16.3333C13.2871 17.6461 14.3553 18.7143 15.6681 18.7143C16.9809 18.7143 18.049 17.6461 18.049 16.3333C18.049 15.0205 16.9809 13.9524 15.6681 13.9524Z" fill="#333333"/>
<path d="M20.3344 11.1348C20.1307 11.1348 19.9648 11.3006 19.9648 11.5043C19.9648 11.708 20.1307 11.8739 20.3344 11.8739C20.5382 11.8739 20.704 11.7082 20.704 11.5043C20.704 11.3005 20.5382 11.1348 20.3344 11.1348Z" fill="#333333"/>
</svg>
