<svg width="29" height="29" viewBox="0 0 29 29" fill="none" xmlns="http://www.w3.org/2000/svg">
<path d="M14.5003 3.55884C6.49218 3.55884 0 10.1126 0 18.1972C0 22.5809 1.89181 25.4399 1.89181 25.4399L27.1027 25.4411C27.1027 25.4411 29 22.3166 29 18.1969C29 10.1126 22.5078 3.55884 14.5003 3.55884ZM26.0392 23.6578L3.00726 23.6478C3.00726 23.6478 1.77999 21.3236 1.77999 18.1511C1.77999 11.0652 7.49673 5.32058 14.5489 5.32058C21.6008 5.32058 27.3179 11.0649 27.3179 18.1511C27.3182 21.3594 26.0392 23.6578 26.0392 23.6578Z" fill="#0C84C8"/>
<path d="M18.5981 7.44613L18.4161 7.44582L14.5483 15.0248L10.5414 7.3811L5.05524 21.1897H3.63745V22.2987H11.4046V21.1897H9.86346L11.4046 16.8741L14.5483 22.2987L17.5689 16.8741L19.1098 21.1897H17.5689V22.2987H25.2741V21.1897H23.9393L18.5981 7.44613Z" fill="#0C84C8"/>
</svg>
