<svg width="32" height="32" viewBox="0 0 32 32" fill="none" xmlns="http://www.w3.org/2000/svg">
<path d="M0 16C0 7.16344 7.16344 0 16 0C24.8366 0 32 7.16344 32 16C32 24.8366 24.8366 32 16 32C7.16344 32 0 24.8366 0 16Z" fill="#ECECEC"/>
<path d="M17.7299 19.6269L20.121 21.9352C20.6108 22.4071 20.6108 23.1734 20.121 23.6457C19.6316 24.1181 18.8385 24.1181 18.3497 23.6457L15.9988 21.3774L13.6499 23.6457C13.405 23.8817 13.084 23.9998 12.7631 23.9998C12.4427 23.9998 12.1223 23.8817 11.8774 23.6457C11.388 23.1734 11.388 22.4076 11.8768 21.9352L14.2682 19.6269C13.3976 19.4354 12.5579 19.1024 11.7845 18.634C11.1992 18.2778 11.0233 17.5315 11.3921 16.966C11.7599 16.3998 12.5333 16.2293 13.1196 16.5855C14.8707 17.6488 17.1264 17.649 18.8785 16.5855C19.4648 16.2293 20.2379 16.3998 20.6065 16.966C20.9753 17.531 20.7989 18.2778 20.2136 18.634C19.4402 19.1029 18.6005 19.4354 17.7299 19.6269Z" fill="#333333"/>
<path fill-rule="evenodd" clip-rule="evenodd" d="M11.7109 12.1291C11.7109 14.4053 13.6294 16.2569 15.9882 16.2569C18.3476 16.2569 20.2655 14.4053 20.2655 12.1291C20.2655 9.85207 18.3476 8 15.9882 8C13.6294 8 11.7109 9.85207 11.7109 12.1291ZM17.7592 12.1291C17.7592 11.1864 16.9648 10.4198 15.9882 10.4198C15.0124 10.4198 14.2172 11.1864 14.2172 12.1291C14.2172 13.071 15.0124 13.8381 15.9882 13.8381C16.9648 13.8381 17.7592 13.071 17.7592 12.1291Z" fill="#333333"/>
</svg>
