<svg width="30" height="30" viewBox="0 0 30 30" fill="none" xmlns="http://www.w3.org/2000/svg">
<path d="M3.75047 0H19.6814L28.1254 8.41128V28.125C28.1254 29.1609 27.2855 30 26.2504 30H3.75047C2.71544 30 1.87549 29.1609 1.87549 28.125V1.87498C1.87549 0.839081 2.71554 0 3.75047 0Z" fill="#E2574C"/>
<path d="M28.0978 8.43743H21.5625C20.5275 8.43743 19.6875 7.59747 19.6875 6.56244V0.0186768L28.0978 8.43743Z" fill="#B53629"/>
<path d="M21.0932 14.2153C21.4073 14.2153 21.5611 13.9416 21.5611 13.6762C21.5611 13.4015 21.4007 13.1362 21.0932 13.1362H19.3045C18.9548 13.1362 18.7598 13.4259 18.7598 13.7456V18.1415C18.7598 18.5334 18.9829 18.7509 19.2848 18.7509C19.5848 18.7509 19.8089 18.5334 19.8089 18.1415V16.935H20.8908C21.2264 16.935 21.3942 16.6603 21.3942 16.3875C21.3942 16.1204 21.2264 15.855 20.8908 15.855H19.8089V14.2153H21.0932ZM15.0473 13.1362H13.7385C13.3832 13.1362 13.131 13.38 13.131 13.7418V18.1453C13.131 18.5943 13.4938 18.735 13.7535 18.735H15.1269C16.7525 18.735 17.826 17.6653 17.826 16.0143C17.8251 14.2687 16.8145 13.1362 15.0473 13.1362ZM15.1102 17.6494H14.3123V14.2219H15.0314C16.1199 14.2219 16.5932 14.9522 16.5932 15.96C16.5932 16.9032 16.1282 17.6494 15.1102 17.6494ZM10.3158 13.1362H9.0192C8.65263 13.1362 8.44824 13.3781 8.44824 13.7456V18.1415C8.44824 18.5334 8.6826 18.7509 8.99757 18.7509C9.31254 18.7509 9.5469 18.5334 9.5469 18.1415V16.8581H10.3597C11.3628 16.8581 12.1906 16.1474 12.1906 15.0046C12.1907 13.8863 11.392 13.1362 10.3158 13.1362ZM10.2942 15.8269H9.547V14.1684H10.2942C10.7555 14.1684 11.0489 14.5284 11.0489 14.9981C11.0479 15.4669 10.7555 15.8269 10.2942 15.8269Z" fill="white"/>
</svg>
