<svg width="72" height="72" viewBox="0 0 72 72" fill="none" xmlns="http://www.w3.org/2000/svg">
<rect width="72" height="72" rx="36" fill="white"/>
<g clip-path="url(#clip0_203:538)">
<path d="M37.0658 46.0035C37.2628 45.6636 37.2783 45.2619 37.1416 44.9249C37.0553 44.7117 37.1307 44.8413 35.1083 42.1446C34.7 41.6003 33.9277 41.4899 33.3834 41.8982C32.8391 42.3065 32.7287 43.0787 33.137 43.6231L33.536 44.155H30.3678C28.9767 44.155 27.845 43.0233 27.845 41.6322V35.9999C27.845 35.3194 27.2934 34.7678 26.6129 34.7678C25.9325 34.7678 25.3809 35.3194 25.3809 35.9999V41.6322C25.3809 44.382 27.618 46.6192 30.3678 46.6192H33.536L33.137 47.1511C32.7288 47.6955 32.8391 48.4678 33.3834 48.876C33.9311 49.2868 34.7027 49.1704 35.1083 48.6296C37.1264 45.9388 37.0104 46.0991 37.0658 46.0035V46.0035Z" fill="#333333"/>
<path d="M38.6888 25.9964C38.4925 26.3351 38.4758 26.7361 38.613 27.075C38.6995 27.2884 38.6238 27.1585 40.6464 29.8553C40.8884 30.178 41.2584 30.3482 41.633 30.3482C42.6285 30.3482 43.2353 29.2003 42.6176 28.3768L42.2187 27.8448H44.7611C45.462 27.8448 46.0323 28.4151 46.0323 29.116C46.0323 29.7965 46.5839 30.3481 47.2643 30.3481C47.9448 30.3481 48.4964 29.7965 48.4964 29.116C48.4964 27.0564 46.8207 25.3807 44.7611 25.3807H42.2187L42.6177 24.8487C43.026 24.3044 42.9156 23.5321 42.3713 23.1239C41.8269 22.7155 41.0547 22.8259 40.6464 23.3703C38.6282 26.0611 38.7442 25.9008 38.6888 25.9964V25.9964Z" fill="#333333"/>
<path d="M34.7483 21H23.5228C22.1317 21 21 22.1317 21 23.5228V29.7418C21 31.1329 22.1317 32.2647 23.5228 32.2647H34.7483C36.1394 32.2647 37.2711 31.1329 37.2711 29.7418V23.5228C37.2711 22.1317 36.1395 21 34.7483 21V21ZM34.807 29.7418C34.807 29.8331 35.4995 29.8005 23.5228 29.8005C23.4325 29.8005 23.4641 30.1132 23.4641 23.5228C23.4641 23.4315 22.7717 23.4641 34.7483 23.4641C34.8387 23.4641 34.807 23.1515 34.807 29.7418Z" fill="#333333"/>
<path d="M27.2395 25.3807H25.9879C25.3075 25.3807 24.7559 25.9324 24.7559 26.6128C24.7559 27.2933 25.3075 27.8449 25.9879 27.8449H27.2395C27.92 27.8449 28.4716 27.2933 28.4716 26.6128C28.4716 25.9324 27.92 25.3807 27.2395 25.3807Z" fill="#333333"/>
<path d="M49.7685 32.2648H39.7555C39.0751 32.2648 38.5234 32.8164 38.5234 33.4968V49.768C38.5234 50.4485 39.0751 51.0001 39.7555 51.0001H49.7685C50.449 51.0001 51.0006 50.4485 51.0006 49.768V33.4968C51.0006 32.8164 50.4489 32.2648 49.7685 32.2648V32.2648ZM48.5365 34.7289V44.1553H40.9876V34.7289H48.5365ZM40.9876 48.536V46.6194H48.5365V48.536H40.9876Z" fill="#333333"/>
</g>
<defs>
<clipPath id="clip0_203:538">
<rect width="30" height="30" fill="white" transform="translate(21 21)"/>
</clipPath>
</defs>
</svg>
