<svg width="72" height="72" viewBox="0 0 72 72" fill="none" xmlns="http://www.w3.org/2000/svg">
<rect width="72" height="72" rx="36" fill="white"/>
<path d="M47.4258 29.8477H43.0312V23.6367C43.0312 22.1828 41.8484 21 40.3945 21H24.5742C23.1203 21 21.9375 22.1828 21.9375 23.6367V48.3633C21.9375 49.8172 23.1203 51 24.5742 51H40.3945C41.8484 51 43.0312 49.8172 43.0312 48.3633V42.1523H47.4258C48.8797 42.1523 50.0625 40.9695 50.0625 39.5156V32.4844C50.0625 31.0305 48.8774 29.8477 47.4258 29.8477ZM47.0617 31.6055L41.8949 36.7723C41.7289 36.9383 41.5082 37.0297 41.2734 37.0297C41.0387 37.0297 40.818 36.9383 40.6519 36.7723L35.4851 31.6055H47.0617ZM37.375 35.9812L34.2422 39.1141V32.8484L37.375 35.9812ZM23.6953 23.6367C23.6953 23.1521 24.0896 22.7578 24.5742 22.7578H40.3945C40.8792 22.7578 41.2734 23.1521 41.2734 23.6367V24.5156H23.6953V23.6367ZM41.2734 48.3633C41.2734 48.8479 40.8792 49.2422 40.3945 49.2422H24.5742C24.0896 49.2422 23.6953 48.8479 23.6953 48.3633V47.4844H41.2734V48.3633ZM41.2734 45.7266H23.6953V26.2734H41.2734V29.8477H35.1211C33.6672 29.8477 32.4844 31.0328 32.4844 32.4844V39.5156C32.4844 40.9695 33.6672 42.1523 35.1211 42.1523H41.2734V45.7266ZM35.4476 40.3945L38.618 37.2242L39.409 38.0152C39.907 38.5132 40.5691 38.7875 41.2734 38.7875C41.9777 38.7875 42.6398 38.5132 43.1379 38.0152L43.9289 37.2242L47.0992 40.3945H35.4476ZM48.3047 39.1141L45.1719 35.9812L48.3047 32.8484V39.1141Z" fill="#333333"/>
<path d="M29.8477 31.6055H26.332C25.8466 31.6055 25.4531 31.999 25.4531 32.4844C25.4531 32.9698 25.8466 33.3633 26.332 33.3633H29.8477C30.333 33.3633 30.7266 32.9698 30.7266 32.4844C30.7266 31.999 30.333 31.6055 29.8477 31.6055Z" fill="#333333"/>
<path d="M29.8477 35.1211H26.332C25.8466 35.1211 25.4531 35.5146 25.4531 36C25.4531 36.4854 25.8466 36.8789 26.332 36.8789H29.8477C30.333 36.8789 30.7266 36.4854 30.7266 36C30.7266 35.5146 30.333 35.1211 29.8477 35.1211Z" fill="#333333"/>
<path d="M29.8477 38.6367H26.332C25.8466 38.6367 25.4531 39.0302 25.4531 39.5156C25.4531 40.001 25.8466 40.3945 26.332 40.3945H29.8477C30.333 40.3945 30.7266 40.001 30.7266 39.5156C30.7266 39.0302 30.333 38.6367 29.8477 38.6367Z" fill="#333333"/>
</svg>
