<svg width="72" height="72" viewBox="0 0 72 72" fill="none" xmlns="http://www.w3.org/2000/svg">
<rect width="72" height="72" rx="36" fill="white"/>
<path d="M45.1779 21H32.2836C30.3989 21 28.8658 22.5307 28.8611 24.414H27.8455C25.3934 24.414 23.3984 26.409 23.3984 28.8611V46.553C23.3984 49.0054 25.3934 51 27.8455 51H40.7397C43.1918 51 45.1864 49.005 45.1864 46.553V45.5374C47.0698 45.5323 48.6005 43.9992 48.6005 42.1148V24.4229C48.6005 22.5355 47.065 21 45.1779 21ZM43.1385 31.2596V44.1545V46.553C43.1385 47.8778 42.0646 48.9518 40.7401 48.9518H27.8455C26.5203 48.9518 25.4467 47.8778 25.4467 46.553V28.8611C25.4467 27.5362 26.5206 26.4623 27.8455 26.4623H40.7397C42.0642 26.4623 43.1382 27.5362 43.1382 28.8611L43.1385 31.2596ZM46.5522 42.1148C46.5522 42.8699 45.9402 43.484 45.1864 43.4885V31.2596V28.8611C45.1864 26.409 43.1915 24.414 40.7397 24.414H30.9096C30.9144 23.6603 31.5285 23.0482 32.2836 23.0482H45.1782C45.9361 23.0482 46.5526 23.6651 46.5526 24.4229V42.1148H46.5522Z" fill="black"/>
<path d="M40.4378 30.3239H28.1484V32.3721H40.4378V30.3239Z" fill="black"/>
<path d="M40.4378 34.7186H28.1484V36.7669H40.4378V34.7186Z" fill="black"/>
<path d="M40.4378 39.1135H28.1484V41.1617H40.4378V39.1135Z" fill="black"/>
<path d="M40.4378 43.5082H28.1484V45.5565H40.4378V43.5082Z" fill="black"/>
</svg>
