<svg width="72" height="72" viewBox="0 0 72 72" fill="none" xmlns="http://www.w3.org/2000/svg">
<rect width="72" height="72" rx="36" fill="white"/>
<g clip-path="url(#clip0_203:566)">
<path d="M49.6304 40.4912C48.7856 40.039 47.7655 40.0883 46.9682 40.6198L42.7835 43.4097C42.6496 42.0803 41.5243 41.0391 40.1602 41.0391H35.7656L35.1923 40.6091C34.0506 39.7528 32.636 39.2812 31.2088 39.2812C30.0057 39.2812 28.8246 39.6084 27.7929 40.2274L27.5624 40.3656V39.5742C27.5624 39.0888 27.1689 38.6953 26.6835 38.6953H21.8789C21.3935 38.6953 21 39.0888 21 39.5742V50.1211C21 50.6065 21.3935 51 21.8789 51H26.6836C27.169 51 27.5625 50.6065 27.5625 50.1211V49.8281H41.4057C42.3038 49.8281 43.1688 49.5579 43.9071 49.0467L49.8827 44.9097C50.5823 44.4254 51 43.6284 51 42.7775C51 41.8194 50.4752 40.9433 49.6304 40.4912ZM25.8047 49.2422H22.7578V40.4531H25.8047V49.2422ZM48.8822 43.4644L42.9065 47.6014C42.4635 47.9082 41.9446 48.0703 41.4057 48.0703H27.5625V42.4156L28.6973 41.7347C29.4558 41.2796 30.3243 41.0391 31.2088 41.0391C32.258 41.0391 33.2982 41.3858 34.1376 42.0154L34.9453 42.6211C35.0975 42.7352 35.2825 42.7969 35.4727 42.7969H40.1602C40.6448 42.7969 41.0391 43.1912 41.0391 43.6758C41.0391 44.1604 40.6448 44.5547 40.1602 44.5547H33.7148C33.2295 44.5547 32.8359 44.9482 32.8359 45.4336C32.8359 45.919 33.2295 46.3125 33.7148 46.3125H40.6224C41.2607 46.3125 41.8788 46.1254 42.41 45.7713L47.9433 42.0824C48.319 41.8319 48.6683 41.9699 48.801 42.041C48.9337 42.112 49.2422 42.3259 49.2422 42.7775C49.2422 43.0516 49.1077 43.3085 48.8822 43.4644Z" fill="#333333"/>
<path d="M34.3008 35.6484C37.9301 35.6484 40.9508 32.9947 41.5259 29.5259C42.2621 30.351 42.8573 31.2975 43.2775 32.3184H42.5039C42.1629 32.3184 41.8526 32.5157 41.708 32.8246C41.5633 33.1334 41.6104 33.498 41.8287 33.76L45.6373 38.3303C45.8043 38.5307 46.0516 38.6466 46.3125 38.6466C46.5734 38.6466 46.8207 38.5307 46.9877 38.3303L50.7963 33.76C51.0146 33.498 51.0616 33.1334 50.917 32.8246C50.7724 32.5157 50.4621 32.3184 50.1211 32.3184H48.8418C48.065 29.2505 46.3137 26.4741 43.8579 24.4403C41.179 22.2218 37.7849 21 34.3008 21C30.2622 21 26.9766 24.2856 26.9766 28.3242C26.9766 32.3628 30.2622 35.6484 34.3008 35.6484ZM40.3823 24.2379C41.2165 24.6689 42.0067 25.1896 42.7368 25.7942C45.0705 27.7269 46.6836 30.4177 47.2789 33.3711C47.3616 33.7813 47.722 34.0763 48.1404 34.0763H48.2446L46.3125 36.3947L44.3804 34.0763H44.5046C44.7787 34.0763 45.0371 33.9483 45.2034 33.7304C45.3697 33.5125 45.4247 33.2295 45.3523 32.9651C44.7241 30.6724 43.37 28.6015 41.5219 27.0959C41.5217 27.0958 41.5215 27.0956 41.5213 27.0955C41.3447 26.0542 40.9479 25.087 40.3801 24.2438C40.3809 24.2418 40.3816 24.2399 40.3823 24.2379ZM34.3008 22.7578C37.3701 22.7578 39.8672 25.2549 39.8672 28.3242C39.8672 31.3935 37.3701 33.8906 34.3008 33.8906C31.2315 33.8906 28.7344 31.3935 28.7344 28.3242C28.7344 25.2549 31.2315 22.7578 34.3008 22.7578Z" fill="#333333"/>
<path d="M34.3008 29.2031C34.6239 29.2031 34.8867 29.466 34.8867 29.7891C34.8867 30.1121 34.6239 30.375 34.3008 30.375C34.0233 30.375 33.7819 30.1782 33.7268 29.9071C33.6302 29.4315 33.1663 29.1243 32.6905 29.2207C32.2148 29.3173 31.9075 29.7813 32.0041 30.257C32.1635 31.0419 32.7116 31.6713 33.4218 31.9605V32.1328C33.4218 32.6182 33.8153 33.0117 34.3007 33.0117C34.7861 33.0117 35.1796 32.6182 35.1796 32.1328V31.9612C36.0376 31.6127 36.6445 30.7707 36.6445 29.7891C36.6445 28.4967 35.5931 27.4453 34.3007 27.4453C33.9776 27.4453 33.7148 27.1825 33.7148 26.8594C33.7148 26.5363 33.9776 26.2734 34.3007 26.2734C34.5782 26.2734 34.8196 26.4702 34.8747 26.7413C34.9713 27.217 35.4355 27.5243 35.911 27.4277C36.3867 27.3311 36.694 26.8672 36.5974 26.3914C36.438 25.6065 35.89 24.9772 35.1797 24.688V24.5156C35.1797 24.0302 34.7862 23.6367 34.3008 23.6367C33.8154 23.6367 33.4219 24.0302 33.4219 24.5156V24.6872C32.5639 25.0357 31.957 25.8778 31.957 26.8594C31.957 28.1517 33.0084 29.2031 34.3008 29.2031Z" fill="#333333"/>
</g>
<defs>
<clipPath id="clip0_203:566">
<rect width="30" height="30" fill="white" transform="translate(21 21)"/>
</clipPath>
</defs>
</svg>
