<svg width="20" height="20" viewBox="0 0 20 20" fill="none" xmlns="http://www.w3.org/2000/svg">
<path d="M7.93954 6.00005L8.14954 5.80005C8.66954 5.26005 8.57954 5.01005 8.06954 4.50005L5.34954 1.75005C4.53954 0.930049 4.38954 0.540049 3.61954 1.27005L3.40954 1.47005L7.93954 6.00005ZM7.40954 6.45005L3.00954 2.05005C2.30954 2.99005 0.669536 5.52005 1.47954 7.39005C2.20954 9.06005 2.56954 9.14005 3.47954 10.39C5.32954 12.5 7.65954 14.76 9.47954 16.46C10.7395 17.37 10.7895 17.79 12.4795 18.46C14.2795 19.17 16.8795 17.57 17.8595 16.9L13.4595 12.5L12.2795 14.12C11.9395 14.58 11.0795 14.06 10.4795 13.46C9.43954 12.41 7.29954 10.28 6.47954 9.39005C5.88954 8.80005 5.35954 7.94005 5.81954 7.59005L7.40954 6.45005ZM18.4295 16.5L18.6395 16.29C19.3195 15.55 18.9295 15.39 18.1195 14.59L15.3795 11.87C14.8695 11.38 14.6295 11.27 14.1095 11.76L13.9095 11.97L18.4295 16.5Z" fill="#0C84C8"/>
</svg>
