<svg width="32" height="32" viewBox="0 0 32 32" fill="none" xmlns="http://www.w3.org/2000/svg">
<path d="M16 32C24.8366 32 32 24.8366 32 16C32 7.16344 24.8366 0 16 0C7.16344 0 0 7.16344 0 16C0 24.8366 7.16344 32 16 32Z" fill="#ECECEC"/>
<path d="M13.0664 23.3333C13.4664 23.3333 13.6431 23.1504 13.8664 22.9333L15.9997 20.8589L13.3387 19.2543" fill="#ECECEC"/>
<path d="M13.3396 19.2547L19.7876 24.0185C20.5234 24.4245 21.0545 24.2143 21.2377 23.3354L23.8624 10.967C24.1311 9.88963 23.4517 9.40099 22.7478 9.72056L7.33582 15.6634C6.2838 16.0853 6.28994 16.6722 7.14406 16.9338L11.0991 18.1682L20.2555 12.3915C20.6878 12.1294 21.0845 12.2703 20.7589 12.5593" fill="#333333"/>
</svg>
