<svg width="14" height="14" viewBox="0 0 14 14" fill="none" xmlns="http://www.w3.org/2000/svg">
<path fill-rule="evenodd" clip-rule="evenodd" d="M1.66659 6.99992C1.66659 5.58543 2.22849 4.22888 3.22868 3.22868C4.22888 2.22849 5.58543 1.66659 6.99992 1.66659C8.41441 1.66659 9.77096 2.22849 10.7712 3.22868C11.7713 4.22888 12.3333 5.58543 12.3333 6.99992C12.3333 8.41441 11.7713 9.77096 10.7712 10.7712C9.77096 11.7713 8.41441 12.3333 6.99992 12.3333C5.58543 12.3333 4.22888 11.7713 3.22868 10.7712C2.22849 9.77096 1.66659 8.41441 1.66659 6.99992V6.99992ZM6.99992 0.333252C3.31792 0.333252 0.333252 3.31792 0.333252 6.99992C0.333252 10.6819 3.31792 13.6666 6.99992 13.6666C10.6819 13.6666 13.6666 10.6819 13.6666 6.99992C13.6666 3.31792 10.6819 0.333252 6.99992 0.333252ZM7.66659 2.99992C7.66659 2.82311 7.59635 2.65354 7.47132 2.52851C7.3463 2.40349 7.17673 2.33325 6.99992 2.33325C6.82311 2.33325 6.65354 2.40349 6.52851 2.52851C6.40349 2.65354 6.33325 2.82311 6.33325 2.99992V6.99992C6.33329 7.17672 6.40355 7.34626 6.52859 7.47125L8.52859 9.47125C8.65432 9.59269 8.82272 9.65989 8.99752 9.65837C9.17232 9.65685 9.33953 9.58674 9.46313 9.46313C9.58674 9.33953 9.65685 9.17232 9.65837 8.99752C9.65989 8.82272 9.59269 8.65432 9.47125 8.52859L7.66659 6.72392V2.99992Z" fill="#0C84C8"/>
</svg>
